<?xml version="1.0" encoding="UTF-8" standalone="no"?>
<!DOCTYPE svg PUBLIC "-//W3C//DTD SVG 1.1//EN"
 "http://www.w3.org/Graphics/SVG/1.1/DTD/svg11.dtd">
<!-- Generated by graphviz version 2.38.0 (20140413.2041)
 -->
<!-- Title: G Pages: 1 -->
<svg width="120pt" height="129pt"
 viewBox="0.00 0.00 119.72 129.50" xmlns="http://www.w3.org/2000/svg" xmlns:xlink="http://www.w3.org/1999/xlink">
<g id="graph0" class="graph" transform="scale(1 1) rotate(0) translate(4 125.497)">
<title>G</title>
<polygon fill="white" stroke="none" points="-4,4 -4,-125.497 115.723,-125.497 115.723,4 -4,4"/>
<!-- tab -->
<g id="node1" class="node"><title>tab</title>
<ellipse fill="none" stroke="black" cx="55.8614" cy="-96.7487" rx="55.7232" ry="25"/>
<polygon fill="none" stroke="black" points="27.8614,-85.7487 27.8614,-106.749 51.8614,-106.749 51.8614,-85.7487 27.8614,-85.7487"/>
<text text-anchor="start" x="30.8614" y="-92.5487" font-family="Times New Roman,serif" font-size="14.00">left</text>
<polygon fill="none" stroke="black" points="53.8614,-85.7487 53.8614,-106.749 84.8614,-106.749 84.8614,-85.7487 53.8614,-85.7487"/>
<text text-anchor="start" x="56.8614" y="-92.5487" font-family="Times New Roman,serif" font-size="14.00">right</text>
<polygon fill="none" stroke="black" points="24.3614,-83.2487 24.3614,-110.249 87.3614,-110.249 87.3614,-83.2487 24.3614,-83.2487"/>
</g>
<!-- b -->
<g id="node2" class="node"><title>b</title>
<ellipse fill="none" stroke="black" cx="54.8614" cy="-18" rx="38.1938" ry="18"/>
<text text-anchor="middle" x="54.8614" y="-14.3" font-family="Times New Roman,serif" font-size="14.00">big boy</text>
</g>
<!-- tab&#45;&gt;b -->
<g id="edge1" class="edge"><title>tab:left&#45;&gt;b</title>
<path fill="none" stroke="black" d="M39.8614,-84.7487C39.8614,-71.6184 42.7401,-57.3742 45.9754,-45.512"/>
<polygon fill="black" stroke="black" points="49.3712,-46.3706 48.8468,-35.7887 42.6578,-44.3879 49.3712,-46.3706"/>
</g>
<!-- tab&#45;&gt;b -->
<g id="edge2" class="edge"><title>tab:right&#45;&gt;b</title>
<path fill="none" stroke="black" d="M69.8614,-84.7487C69.8614,-71.6184 66.9827,-57.3742 63.7475,-45.512"/>
<polygon fill="black" stroke="black" points="67.0651,-44.3879 60.8761,-35.7887 60.3517,-46.3706 67.0651,-44.3879"/>
</g>
</g>
</svg>
