<?xml version="1.0" encoding="UTF-8" standalone="no"?>
<!DOCTYPE svg PUBLIC "-//W3C//DTD SVG 1.1//EN"
 "http://www.w3.org/Graphics/SVG/1.1/DTD/svg11.dtd">
<!-- Generated by graphviz version 2.38.0 (20140413.2041)
 -->
<!-- Title: G Pages: 1 -->
<svg width="575pt" height="138pt"
 viewBox="0.00 0.00 575.00 138.00" xmlns="http://www.w3.org/2000/svg" xmlns:xlink="http://www.w3.org/1999/xlink">
<g id="graph0" class="graph" transform="scale(1 1) rotate(0) translate(4 134)">
<title>G</title>
<polygon fill="white" stroke="none" points="-4,4 -4,-134 571,-134 571,4 -4,4"/>
<g id="clust4" class="cluster"><title>cluster_BasicArray_user</title>
<polygon fill="none" stroke="black" points="441,-16 441,-91 559,-91 559,-16 441,-16"/>
<text text-anchor="middle" x="500" y="-75.8" font-family="Times New Roman,serif" font-size="14.00">BasicArray[user]</text>
</g>
<g id="clust1" class="cluster"><title>cluster_Index_activity</title>
<polygon fill="none" stroke="black" points="8,-16 8,-91 126,-91 126,-16 8,-16"/>
<text text-anchor="middle" x="67" y="-75.8" font-family="Times New Roman,serif" font-size="14.00">Index[activity]</text>
</g>
<g id="clust2" class="cluster"><title>cluster_BasicArray_activity</title>
<polygon fill="none" stroke="black" points="134,-8 134,-122 433,-122 433,-8 134,-8"/>
<text text-anchor="middle" x="283.5" y="-106.8" font-family="Times New Roman,serif" font-size="14.00">BasicArray[activity]</text>
</g>
<g id="clust3" class="cluster"><title>cluster_BasicArray_activity.channel</title>
<polygon fill="none" stroke="black" points="252,-16 252,-91 425,-91 425,-16 252,-16"/>
<text text-anchor="middle" x="338.5" y="-75.8" font-family="Times New Roman,serif" font-size="14.00">BasicArray[activity.channel]</text>
</g>
<!-- Index_activity -->
<g id="node1" class="node"><title>Index_activity</title>
<ellipse fill="none" stroke="black" cx="67" cy="-42" rx="50.5248" ry="18"/>
<polygon fill="none" stroke="black" points="36,-39 36,-45 42,-45 42,-39 36,-39"/>
<polygon fill="none" stroke="black" points="44,-39 44,-45 50,-45 50,-39 44,-39"/>
<polygon fill="none" stroke="black" points="52,-39 52,-45 58,-45 58,-39 52,-39"/>
<polygon fill="none" stroke="black" points="60,-39 60,-45 66,-45 66,-39 60,-39"/>
<polygon fill="none" stroke="black" points="68,-39 68,-45 74,-45 74,-39 68,-39"/>
<polygon fill="none" stroke="black" points="76,-39 76,-45 82,-45 82,-39 76,-39"/>
<polygon fill="none" stroke="black" points="84,-39 84,-45 90,-45 90,-39 84,-39"/>
<polygon fill="none" stroke="black" points="92,-39 92,-45 98,-45 98,-39 92,-39"/>
<polygon fill="none" stroke="black" points="33,-36 33,-48 101,-48 101,-36 33,-36"/>
</g>
<!-- BasicArray_activity -->
<g id="node2" class="node"><title>BasicArray_activity</title>
<ellipse fill="none" stroke="black" cx="193" cy="-42" rx="50.5248" ry="18"/>
<polygon fill="none" stroke="black" points="162,-39 162,-45 168,-45 168,-39 162,-39"/>
<polygon fill="none" stroke="black" points="170,-39 170,-45 176,-45 176,-39 170,-39"/>
<polygon fill="none" stroke="black" points="178,-39 178,-45 184,-45 184,-39 178,-39"/>
<polygon fill="none" stroke="black" points="186,-39 186,-45 192,-45 192,-39 186,-39"/>
<polygon fill="none" stroke="black" points="194,-39 194,-45 200,-45 200,-39 194,-39"/>
<polygon fill="none" stroke="black" points="202,-39 202,-45 208,-45 208,-39 202,-39"/>
<polygon fill="none" stroke="black" points="210,-39 210,-45 216,-45 216,-39 210,-39"/>
<polygon fill="none" stroke="black" points="218,-39 218,-45 224,-45 224,-39 218,-39"/>
<polygon fill="none" stroke="black" points="159,-36 159,-48 227,-48 227,-36 159,-36"/>
</g>
<!-- BasicArray_activity.channel -->
<g id="node3" class="node"><title>BasicArray_activity.channel</title>
<ellipse fill="none" stroke="black" cx="339" cy="-42" rx="31.0408" ry="18"/>
<polygon fill="none" stroke="black" points="324,-39 324,-45 330,-45 330,-39 324,-39"/>
<polygon fill="none" stroke="black" points="332,-39 332,-45 338,-45 338,-39 332,-39"/>
<polygon fill="none" stroke="black" points="340,-39 340,-45 346,-45 346,-39 340,-39"/>
<polygon fill="none" stroke="black" points="348,-39 348,-45 354,-45 354,-39 348,-39"/>
<polygon fill="none" stroke="black" points="321,-36 321,-48 357,-48 357,-36 321,-36"/>
</g>
<!-- BasicArray_user -->
<g id="node4" class="node"><title>BasicArray_user</title>
<ellipse fill="none" stroke="black" cx="500" cy="-42" rx="50.5248" ry="18"/>
<polygon fill="none" stroke="black" points="469,-39 469,-45 475,-45 475,-39 469,-39"/>
<polygon fill="none" stroke="black" points="477,-39 477,-45 483,-45 483,-39 477,-39"/>
<polygon fill="none" stroke="black" points="485,-39 485,-45 491,-45 491,-39 485,-39"/>
<polygon fill="none" stroke="black" points="493,-39 493,-45 499,-45 499,-39 493,-39"/>
<polygon fill="none" stroke="black" points="501,-39 501,-45 507,-45 507,-39 501,-39"/>
<polygon fill="none" stroke="black" points="509,-39 509,-45 515,-45 515,-39 509,-39"/>
<polygon fill="none" stroke="black" points="517,-39 517,-45 523,-45 523,-39 517,-39"/>
<polygon fill="none" stroke="black" points="525,-39 525,-45 531,-45 531,-39 525,-39"/>
<polygon fill="none" stroke="black" points="466,-36 466,-48 534,-48 534,-36 466,-36"/>
</g>
</g>
</svg>
